<svg width="64" height="64" viewBox="0 0 64 64" xmlns="http://www.w3.org/2000/svg">
  <defs>
    <linearGradient id="bgTeal" x1="0%" y1="0%" x2="0%" y2="100%">
      <stop offset="0%" stop-color="#26a69a"/>
      <stop offset="100%" stop-color="#004d40"/>
    </linearGradient>
  </defs>

  <!-- Outer Disc -->
  <rect x="6" y="6" width="52" height="52" rx="26" fill="url(#bgTeal)"/>
  
  <!-- Subtle 3D Rim -->
  <path d="M 32 6 A 26 26 0 0 1 58 32 A 26 26 0 0 0 32 7 A 26 26 0 0 0 6 32 A 26 26 0 0 1 32 6 Z" fill="#ffffff" opacity="0.2"/>
  <path d="M 6 32 A 26 26 0 0 0 32 58 A 26 26 0 0 0 58 32 A 26 26 0 0 1 32 57 A 26 26 0 0 1 6 32 Z" fill="#000000" opacity="0.25"/>

  <!-- Sliders / Controls Glyph -->
  <line x1="20" y1="18" x2="20" y2="46" stroke="#ffffff" stroke-width="2.5" stroke-linecap="round"/>
  <line x1="32" y1="18" x2="32" y2="46" stroke="#ffffff" stroke-width="2.5" stroke-linecap="round"/>
  <line x1="44" y1="18" x2="44" y2="46" stroke="#ffffff" stroke-width="2.5" stroke-linecap="round"/>
  
  <circle cx="20" cy="26" r="4.5" fill="#ffffff"/>
  <circle cx="32" cy="38" r="4.5" fill="#ffffff"/>
  <circle cx="44" cy="30" r="4.5" fill="#ffffff"/>
</svg>
