<svg width="64" height="64" viewBox="0 0 64 64" xmlns="http://www.w3.org/2000/svg">
  <defs>
    <linearGradient id="bgPurple" x1="0%" y1="0%" x2="0%" y2="100%">
      <stop offset="0%" stop-color="#ab47bc"/>
      <stop offset="100%" stop-color="#4a148c"/>
    </linearGradient>
    <linearGradient id="boltExtreme" x1="0%" y1="0%" x2="0%" y2="100%">
      <stop offset="0%" stop-color="#f3e5f5"/>
      <stop offset="100%" stop-color="#ffffff"/>
    </linearGradient>
    <linearGradient id="flameGrad" x1="0%" y1="0%" x2="0%" y2="100%">
      <stop offset="0%" stop-color="#ea80fc"/>
      <stop offset="100%" stop-color="#e040fb"/>
    </linearGradient>
  </defs>

  <!-- Outer Disc -->
  <rect x="6" y="6" width="52" height="52" rx="26" fill="url(#bgPurple)"/>
  
  <!-- Subtle 3D Rim -->
  <path d="M 32 6 A 26 26 0 0 1 58 32 A 26 26 0 0 0 32 7 A 26 26 0 0 0 6 32 A 26 26 0 0 1 32 6 Z" fill="#ffffff" opacity="0.25"/>
  <path d="M 6 32 A 26 26 0 0 0 32 58 A 26 26 0 0 0 58 32 A 26 26 0 0 1 32 57 A 26 26 0 0 1 6 32 Z" fill="#000000" opacity="0.3"/>

  <!-- Turbo Speedometer Arc with Overclock Notch -->
  <path d="M 18 41 A 17 17 0 1 1 46 41" fill="none" stroke="#ffffff" stroke-width="3" stroke-linecap="round" opacity="0.4"/>
  <path d="M 28 15 A 17 17 0 0 1 46 41" fill="none" stroke="#ffffff" stroke-width="4" stroke-linecap="round" opacity="0.95"/>

  <!-- Dual Thunderbolt / Turbo Overclock Core -->
  <path d="M 36 14 L 25 29 L 32 29 L 28 44 L 41 27 L 34 27 Z" fill="url(#boltExtreme)"/>
  
  <!-- Speed Flames / Boost Ticks -->
  <circle cx="44" cy="24" r="1.6" fill="#ffffff"/>
  <circle cx="46" cy="33" r="1.6" fill="#ffffff"/>
</svg>
